<svg xmlns="http://www.w3.org/2000/svg" viewBox="0 0 1180 720" role="img" aria-labelledby="title desc">
  <title id="title">ELMA quản lý nội dung</title>
  <desc id="desc">Minh họa màn hình ELMA quản lý danh sách nội dung, kiểm duyệt và trạng thái biên tập.</desc>
  <rect width="1180" height="720" fill="#ffffff"/>
  <rect x="0" y="0" width="162" height="720" fill="#f8fafc" stroke="#e5e7eb"/>
  <circle cx="24" cy="28" r="18" fill="#111827"/>
  <text x="54" y="33" font-family="Arial, sans-serif" font-size="17" font-weight="700" fill="#111827">ELMA</text>
  <g font-family="Arial, sans-serif" fill="#1f2937" font-size="14">
    <text x="18" y="82" fill="#9ca3af" font-size="12">TỔNG QUAN</text>
    <text x="28" y="116">Tổng quan</text>
    <text x="18" y="164" fill="#9ca3af" font-size="12">QUẢN LÝ</text>
    <text x="28" y="200">Nhân sự</text>
    <text x="28" y="236">Ý tưởng</text>
    <rect x="8" y="258" width="146" height="34" rx="6" fill="#e8f0ff"/>
    <text x="28" y="280" fill="#2563eb" font-weight="700">Nội dung</text>
    <text x="28" y="316">Biên tập</text>
    <text x="28" y="352">Quy trình</text>
    <text x="28" y="388">Tài sản</text>
    <text x="28" y="424">Phân công</text>
    <text x="18" y="468" fill="#9ca3af" font-size="12">CẤU HÌNH</text>
    <text x="28" y="504">Chỉ tiêu KPI</text>
    <text x="28" y="540">Tích hợp</text>
    <text x="28" y="576">Tài khoản mạng xã hội</text>
  </g>
  <rect x="162" y="0" width="1018" height="52" fill="#ffffff" stroke="#e5e7eb"/>
  <text x="246" y="32" font-family="Arial, sans-serif" font-size="15" fill="#64748b">Quản trị  ›</text>
  <text x="306" y="32" font-family="Arial, sans-serif" font-size="15" font-weight="700" fill="#111827">Nội dung</text>
  <text x="208" y="116" font-family="Arial, sans-serif" font-size="32" font-weight="800" fill="#111827">Nội dung</text>
  <g font-family="Arial, sans-serif">
    <rect x="210" y="150" width="96" height="38" rx="19" fill="#ffffff" stroke="#d1d5db"/>
    <text x="226" y="174" font-size="14" fill="#475569">Quản lý nội dung</text>
    <rect x="316" y="150" width="120" height="38" rx="19" fill="#eff6ff" stroke="#2563eb"/>
    <text x="332" y="174" font-size="14" fill="#2563eb">Kiểm duyệt nội dung</text>
    <rect x="210" y="218" width="964" height="54" rx="12" fill="#ffffff" stroke="#e5e7eb"/>
    <text x="226" y="251" font-size="15" font-weight="700" fill="#111827">Danh sách nội dung</text>
    <rect x="508" y="229" width="356" height="32" rx="14" fill="#ffffff" stroke="#d1d5db"/>
    <text x="532" y="250" font-size="14" fill="#64748b">Tìm kiếm...</text>
  </g>
  <g font-family="Arial, sans-serif">
    <g transform="translate(210 292)">
      <rect width="180" height="86" rx="10" fill="#ffffff" stroke="#e5e7eb"/>
      <text x="20" y="32" font-size="14" fill="#60a5fa">Tổng hàng chờ</text>
      <text x="20" y="62" font-size="28" font-weight="800" fill="#2563eb">6</text>
    </g>
    <g transform="translate(402 292)">
      <rect width="180" height="86" rx="10" fill="#ffffff" stroke="#e5e7eb"/>
      <text x="20" y="32" font-size="14" fill="#94a3b8">Bản nháp</text>
      <text x="20" y="62" font-size="28" font-weight="800" fill="#64748b">0</text>
    </g>
    <g transform="translate(594 292)">
      <rect width="180" height="86" rx="10" fill="#ffffff" stroke="#e5e7eb"/>
      <text x="20" y="32" font-size="14" fill="#3b82f6">Đang duyệt</text>
      <text x="20" y="62" font-size="28" font-weight="800" fill="#2563eb">4</text>
    </g>
    <g transform="translate(786 292)">
      <rect width="180" height="86" rx="10" fill="#ffffff" stroke="#e5e7eb"/>
      <text x="20" y="32" font-size="14" fill="#f59e0b">Cần sửa</text>
      <text x="20" y="62" font-size="28" font-weight="800" fill="#f59e0b">0</text>
    </g>
    <g transform="translate(978 292)">
      <rect width="180" height="86" rx="10" fill="#ffffff" stroke="#e5e7eb"/>
      <text x="20" y="32" font-size="14" fill="#22c55e">Đã duyệt</text>
      <text x="20" y="62" font-size="28" font-weight="800" fill="#22c55e">2</text>
    </g>
  </g>
  <g font-family="Arial, sans-serif" font-size="13">
    <rect x="210" y="404" width="964" height="252" rx="12" fill="#ffffff" stroke="#e5e7eb"/>
    <rect x="210" y="404" width="964" height="46" rx="12" fill="#f8fafc"/>
    <text x="230" y="432" fill="#64748b">NGÀY</text>
    <text x="298" y="432" fill="#64748b">NGƯỜI VIẾT</text>
    <text x="446" y="432" fill="#64748b">MÃ KỊCH BẢN</text>
    <text x="560" y="432" fill="#64748b">TIÊU ĐỀ</text>
    <text x="778" y="432" fill="#64748b">KIỂM TRA</text>
    <text x="902" y="432" fill="#64748b">TRẠNG THÁI</text>
    <text x="1030" y="432" fill="#64748b">BIÊN TẬP</text>
    <g fill="#111827">
      <text x="230" y="486">4/5/26</text><text x="298" y="486">Đỗ Thái Sơn</text><text x="446" y="486" fill="#2563eb">A2EDU08</text><text x="560" y="486">Bảng xếp hạng Quốc Gia...</text><circle cx="796" cy="480" r="17" fill="#eafff0" stroke="#22c55e"/><text x="790" y="485" fill="#16a34a">7</text><rect x="902" y="466" width="74" height="28" rx="14" fill="#dbeafe"/><text x="916" y="485" fill="#2563eb">Đang duyệt</text>
      <text x="230" y="538">4/5/26</text><text x="298" y="538">Nguyễn Thế Hưng</text><text x="446" y="538" fill="#2563eb">A2ING14</text><text x="560" y="538">Tác dụng của polysaccharid...</text><circle cx="796" cy="532" r="17" fill="#eafff0" stroke="#22c55e"/><text x="790" y="537" fill="#16a34a">7</text><rect x="902" y="518" width="74" height="28" rx="14" fill="#dbeafe"/><text x="916" y="537" fill="#2563eb">Đang duyệt</text>
      <text x="230" y="590">4/5/26</text><text x="298" y="590">Phan Hoàng Nam</text><text x="446" y="590" fill="#2563eb">A2HAB32</text><text x="560" y="590">Làm thế nào để duy trì...</text><circle cx="796" cy="584" r="17" fill="#eafff0" stroke="#22c55e"/><text x="790" y="589" fill="#16a34a">7</text><rect x="902" y="570" width="62" height="28" rx="14" fill="#dcfce7"/><text x="918" y="589" fill="#16a34a">Đã duyệt</text><rect x="1030" y="570" width="72" height="28" rx="14" fill="#ffedd5"/><text x="1045" y="589" fill="#f97316">Đang edit</text>
    </g>
  </g>
</svg>
